<svg xmlns="http://www.w3.org/2000/svg" width="256" height="96" viewBox="0 0 64 24">
  <defs>
    <linearGradient id="steel" x1="0" y1="0" x2="0" y2="1"><stop stop-color="#26302b"/><stop offset=".35" stop-color="#acb49a"/><stop offset=".52" stop-color="#748568"/><stop offset="1" stop-color="#26302b"/></linearGradient>
    <linearGradient id="fire"><stop stop-color="#ed6331" stop-opacity="0"/><stop offset=".55" stop-color="#ff9b38" stop-opacity=".8"/><stop offset="1" stop-color="#fff7ce"/></linearGradient>
  </defs>
  <path d="M0 12L19 7L25 12L19 17Z" fill="url(#fire)" opacity=".65"/>
  <path d="M8 12L23 10V14Z" fill="url(#fire)"/>
  <path d="M23 10L18 3L28 7L31 10M23 14L18 21L28 17L31 14" fill="#667269" stroke="#29382f" stroke-width=".7"/>
  <path d="M22 9H35L42 5H49L61 12L49 19H42L35 15H22Z" fill="url(#steel)" stroke="#252d28" stroke-width="1"/>
  <path d="M48 5L61 12L48 19Z" fill="#474e3b"/>
  <path d="M44 5V19" stroke="#d5ba64" stroke-width="2"/>
  <path d="M24 10H35L42 7H48L55 10" fill="none" stroke="#e2e4c3" stroke-width="1" opacity=".8"/>
</svg>
